<svg xmlns="http://www.w3.org/2000/svg" xmlns:xlink="http://www.w3.org/1999/xlink" x="0" y="0" width="662" height="292" style="
        width:662px;
        height:292px;
        background: transparent;
        fill: none;
">
        
        
        <svg xmlns="http://www.w3.org/2000/svg" class="role-diagram-draw-area"><g class="shapes-region" style="stroke: black; fill: none;"><g class="arrow-line"><path class="connection real" stroke-dasharray="" d="  M265,117 L396,108" style="stroke: rgb(155, 155, 155); stroke-opacity: 1; stroke-width: 1; fill: none; fill-opacity: 1;"/></g><g class="arrow-line"><path class="connection real" stroke-dasharray="" d="  M396,108 L415,197" style="stroke: rgb(155, 155, 155); stroke-opacity: 1; stroke-width: 1; fill: none; fill-opacity: 1;"/></g><g class="arrow-line"><path class="connection real" stroke-dasharray="" d="  M245,196 L415,197" style="stroke: rgb(155, 155, 155); stroke-opacity: 1; stroke-width: 1; fill: none; fill-opacity: 1;"/></g><g class="arrow-line"><path class="connection real" stroke-dasharray="" d="  M265,117 L245,196" style="stroke: rgb(155, 155, 155); stroke-opacity: 1; stroke-width: 1; fill: none; fill-opacity: 1;"/></g><g class="arrow-line"><path class="connection real" stroke-dasharray="" d="  M245,196 L250.5,254.5" style="stroke: rgb(155, 155, 155); stroke-opacity: 1; stroke-width: 1; fill: rgb(155, 155, 155); fill-opacity: 1;"/></g><g class="arrow-line"><path class="connection real" stroke-dasharray="" d="  M250.5,254.5 L420.5,262.5" style="stroke: rgb(155, 155, 155); stroke-opacity: 1; stroke-width: 1; fill: rgb(155, 155, 155); fill-opacity: 1;"/></g><g class="arrow-line"><path class="connection real" stroke-dasharray="" d="  M415,197 L420.5,262.5" style="stroke: rgb(155, 155, 155); stroke-opacity: 1; stroke-width: 1; fill: none; fill-opacity: 1;"/></g><g class="arrow-line"><path class="connection real" stroke-dasharray="" d="  M168.5,236.5 L245,196" style="stroke: rgb(155, 155, 155); stroke-opacity: 1; stroke-width: 1; fill: none; fill-opacity: 1;"/></g><g class="arrow-line"><path class="connection real" stroke-dasharray="" d="  M168.5,236.5 L250.5,254.5" style="stroke: rgb(155, 155, 155); stroke-opacity: 1; stroke-width: 1; fill: none; fill-opacity: 1;"/></g><g class="arrow-line"><path class="connection real" stroke-dasharray="" d="  M213.5,63.5 L265,117" style="stroke: rgb(155, 155, 155); stroke-opacity: 1; stroke-width: 1; fill: none; fill-opacity: 1;"/></g><g class="arrow-line"><path class="connection real" stroke-dasharray="" d="  M213.5,63.5 L170,236.5" style="stroke: rgb(155, 155, 155); stroke-opacity: 1; stroke-width: 1; fill: rgb(155, 155, 155); fill-opacity: 1;"/></g><g class="arrow-line"><path class="connection real" stroke-dasharray="" d="  M280.5,23 L265,117" style="stroke: rgb(155, 155, 155); stroke-opacity: 1; stroke-width: 1; fill: none; fill-opacity: 1;"/></g><g class="arrow-line"><path class="connection real" stroke-dasharray="" d="  M280.5,23 L213.5,63.5" style="stroke: rgb(155, 155, 155); stroke-opacity: 1; stroke-width: 1; fill: none; fill-opacity: 1;"/></g><g class="arrow-line"><path class="connection real" stroke-dasharray="" d="  M444.5,31 L396,108" style="stroke: rgb(155, 155, 155); stroke-opacity: 1; stroke-width: 1; fill: none; fill-opacity: 1;"/></g><g class="arrow-line"><path class="connection real" stroke-dasharray="" d="  M444.5,31 L280.5,23" style="stroke: rgb(155, 155, 155); stroke-opacity: 1; stroke-width: 1; fill: none; fill-opacity: 1;"/></g><g class="arrow-line"><path class="connection real" stroke-dasharray="" d="  M464,94.5 L396,108" style="stroke: rgb(155, 155, 155); stroke-opacity: 1; stroke-width: 1; fill: none; fill-opacity: 1;"/></g><g class="arrow-line"><path class="connection real" stroke-dasharray="" d="  M444.5,31 L464,94.5" style="stroke: rgb(155, 155, 155); stroke-opacity: 1; stroke-width: 1; fill: none; fill-opacity: 1;"/></g><g class="arrow-line"><path class="connection real" stroke-dasharray="" d="  M497.5,182 L415,197" style="stroke: rgb(155, 155, 155); stroke-opacity: 1; stroke-width: 1; fill: none; fill-opacity: 1;"/></g><g class="arrow-line"><path class="connection real" stroke-dasharray="" d="  M464,94.5 L497.5,182" style="stroke: rgb(155, 155, 155); stroke-opacity: 1; stroke-width: 1; fill: none; fill-opacity: 1;"/></g><g class="arrow-line"><path class="connection real" stroke-dasharray="" d="  M497.5,182 L420.5,262.5" style="stroke: rgb(155, 155, 155); stroke-opacity: 1; stroke-width: 1; fill: none; fill-opacity: 1;"/></g><g class="composite-shape"><path class="real" d=" M243.5,196 C243.5,195.17 244.17,194.5 245,194.5 C245.83,194.5 246.5,195.17 246.5,196 C246.5,196.83 245.83,197.5 245,197.5 C244.17,197.5 243.5,196.83 243.5,196 Z" style="stroke-width: 1; stroke: rgb(155, 155, 155); stroke-opacity: 1; fill: rgb(155, 155, 155); fill-opacity: 1;"/></g><g class="composite-shape"><path class="real" d=" M263.5,117 C263.5,116.17 264.17,115.5 265,115.5 C265.83,115.5 266.5,116.17 266.5,117 C266.5,117.83 265.83,118.5 265,118.5 C264.17,118.5 263.5,117.83 263.5,117 Z" style="stroke-width: 1; stroke: rgb(155, 155, 155); stroke-opacity: 1; fill: rgb(155, 155, 155); fill-opacity: 1;"/></g><g class="composite-shape"><path class="real" d=" M212,63.5 C212,62.67 212.67,62 213.5,62 C214.33,62 215,62.67 215,63.5 C215,64.33 214.33,65 213.5,65 C212.67,65 212,64.33 212,63.5 Z" style="stroke-width: 1; stroke: rgb(155, 155, 155); stroke-opacity: 1; fill: rgb(155, 155, 155); fill-opacity: 1;"/></g><g class="composite-shape"><path class="real" d=" M279,23 C279,22.17 279.67,21.5 280.5,21.5 C281.33,21.5 282,22.17 282,23 C282,23.83 281.33,24.5 280.5,24.5 C279.67,24.5 279,23.83 279,23 Z" style="stroke-width: 1; stroke: rgb(155, 155, 155); stroke-opacity: 1; fill: rgb(155, 155, 155); fill-opacity: 1;"/></g><g class="composite-shape"><path class="real" d=" M443,31 C443,30.17 443.67,29.5 444.5,29.5 C445.33,29.5 446,30.17 446,31 C446,31.83 445.33,32.5 444.5,32.5 C443.67,32.5 443,31.83 443,31 Z" style="stroke-width: 1; stroke: rgb(155, 155, 155); stroke-opacity: 1; fill: rgb(155, 155, 155); fill-opacity: 1;"/></g><g class="composite-shape"><path class="real" d=" M394.5,108 C394.5,107.17 395.17,106.5 396,106.5 C396.83,106.5 397.5,107.17 397.5,108 C397.5,108.83 396.83,109.5 396,109.5 C395.17,109.5 394.5,108.83 394.5,108 Z" style="stroke-width: 1; stroke: rgb(155, 155, 155); stroke-opacity: 1; fill: rgb(155, 155, 155); fill-opacity: 1;"/></g><g class="composite-shape"><path class="real" d=" M462.5,94.5 C462.5,93.67 463.17,93 464,93 C464.83,93 465.5,93.67 465.5,94.5 C465.5,95.33 464.83,96 464,96 C463.17,96 462.5,95.33 462.5,94.5 Z" style="stroke-width: 1; stroke: rgb(155, 155, 155); stroke-opacity: 1; fill: rgb(155, 155, 155); fill-opacity: 1;"/></g><g class="composite-shape"><path class="real" d=" M413.5,197 C413.5,196.17 414.17,195.5 415,195.5 C415.83,195.5 416.5,196.17 416.5,197 C416.5,197.83 415.83,198.5 415,198.5 C414.17,198.5 413.5,197.83 413.5,197 Z" style="stroke-width: 1; stroke: rgb(155, 155, 155); stroke-opacity: 1; fill: rgb(155, 155, 155); fill-opacity: 1;"/></g><g class="composite-shape"><path class="real" d=" M496,182 C496,181.17 496.67,180.5 497.5,180.5 C498.33,180.5 499,181.17 499,182 C499,182.83 498.33,183.5 497.5,183.5 C496.67,183.5 496,182.83 496,182 Z" style="stroke-width: 1; stroke: rgb(155, 155, 155); stroke-opacity: 1; fill: rgb(155, 155, 155); fill-opacity: 1;"/></g><g class="composite-shape"><path class="real" d=" M168.5,236.5 C168.5,235.67 169.17,235 170,235 C170.83,235 171.5,235.67 171.5,236.5 C171.5,237.33 170.83,238 170,238 C169.17,238 168.5,237.33 168.5,236.5 Z" style="stroke-width: 1; stroke: rgb(155, 155, 155); stroke-opacity: 1; fill: rgb(155, 155, 155); fill-opacity: 1;"/></g><g class="composite-shape"><path class="real" d=" M249,254.5 C249,253.67 249.67,253 250.5,253 C251.33,253 252,253.67 252,254.5 C252,255.33 251.33,256 250.5,256 C249.67,256 249,255.33 249,254.5 Z" style="stroke-width: 1; stroke: rgb(155, 155, 155); stroke-opacity: 1; fill: rgb(155, 155, 155); fill-opacity: 1;"/></g><g class="composite-shape"><path class="real" d=" M419,262.5 C419,261.67 419.67,261 420.5,261 C421.33,261 422,261.67 422,262.5 C422,263.33 421.33,264 420.5,264 C419.67,264 419,263.33 419,262.5 Z" style="stroke-width: 1; stroke: rgb(155, 155, 155); stroke-opacity: 1; fill: rgb(155, 155, 155); fill-opacity: 1;"/></g><g class="composite-shape"><path class="real" d=" M236.02,145.82 C235.99,142.8 246.05,140.9 258.49,141.58 C270.93,142.25 281.03,145.25 281.06,148.27 C278.36,145.79 269.28,143.59 258.5,143 C247.73,142.41 238.68,143.63 236.02,145.82 Z" style="stroke-width: 1; stroke: rgb(155, 155, 155); stroke-opacity: 1; fill: rgb(155, 155, 155); fill-opacity: 0.5;"/></g><g class="composite-shape"><path class="real" d=" M384.03,147.21 C384.02,145.74 393.19,142.74 404.5,140.52 C415.82,138.3 425.01,137.7 425.02,139.17 C420.92,139.17 413.27,140.14 404.52,141.86 C395.76,143.57 388.12,145.61 384.03,147.21 Z" style="stroke-width: 1; stroke: rgb(155, 155, 155); stroke-opacity: 1; fill: rgb(155, 155, 155); fill-opacity: 0.5;"/></g><g class="composite-shape"><path class="real" d=" M313.39,217.98 C312.34,218 313.84,209.78 316.74,199.62 C319.63,189.45 322.82,181.2 323.87,181.18 C322.16,186.75 320.32,192.99 318.44,199.58 C316.56,206.18 314.85,212.42 313.39,217.98 Z" style="stroke-width: 1; stroke: rgb(155, 155, 155); stroke-opacity: 1; fill: rgb(155, 155, 155); fill-opacity: 0.5;"/></g><g class="composite-shape"><path class="real" d=" M322,128.55 C320.36,129.01 321.08,120.29 323.61,109.08 C326.13,97.87 329.51,88.4 331.15,87.94 C329.36,92.41 327.11,100.08 325.18,108.64 C323.25,117.2 322.11,124.55 322,128.55 Z" style="stroke-width: 1; stroke: rgb(155, 155, 155); stroke-opacity: 1; fill: rgb(155, 155, 155); fill-opacity: 0.5;"/></g><g/></g><g/><g/><g/></svg>
        <svg xmlns="http://www.w3.org/2000/svg" xmlns:xlink="http://www.w3.org/1999/xlink" width="660" height="290" style="width:660px;height:290px;font-family:Asana-Math, Asana;background:transparent;"><g><g><g><g><g><g><g transform="matrix(1,0,0,1,249,220)"><path transform="matrix(0.017,0,0,-0.017,0,0)" d="M567 55C567 39 552 30 524 28L480 25L480 -3C582 0 582 0 602 0C622 0 622 0 724 -3L724 25L698 28C651 35 650 35 642 80L555 705L509 705L136 112C100 56 82 40 48 32L28 27L28 -3C120 0 120 0 140 0C159 0 161 0 247 -3L247 25L195 28C179 29 164 38 164 47C164 55 171 69 190 102L292 277L538 277L563 89L563 86C563 84 567 69 567 55ZM496 601L533 313L317 313Z" stroke="rgb(155,155,155)" stroke-opacity="1" stroke-width="8" fill="rgb(155,155,155)" fill-opacity="1"></path></g></g><g><g><g><g><g transform="matrix(1,0,0,1,262.28125,223.5015625)"><path transform="matrix(0.0119,0,0,-0.0119,0,0)" d="M16 23L16 -3C203 -3 203 0 239 0C275 0 275 -3 468 -3L468 82C353 77 307 81 122 77L304 270C401 373 431 428 431 503C431 618 353 689 226 689C154 689 105 669 56 619L39 483L68 483L81 529C97 587 133 612 200 612C286 612 341 558 341 473C341 398 299 324 186 204Z" stroke="rgb(155,155,155)" stroke-opacity="1" stroke-width="8" fill="rgb(155,155,155)" fill-opacity="1"></path></g></g></g></g></g></g></g></g></g></g><g><g><g><g><g><g><g transform="matrix(1,0,0,1,388,215.5)"><path transform="matrix(0.017,0,0,-0.017,0,0)" d="M567 55C567 39 552 30 524 28L480 25L480 -3C582 0 582 0 602 0C622 0 622 0 724 -3L724 25L698 28C651 35 650 35 642 80L555 705L509 705L136 112C100 56 82 40 48 32L28 27L28 -3C120 0 120 0 140 0C159 0 161 0 247 -3L247 25L195 28C179 29 164 38 164 47C164 55 171 69 190 102L292 277L538 277L563 89L563 86C563 84 567 69 567 55ZM496 601L533 313L317 313Z" stroke="rgb(155,155,155)" stroke-opacity="1" stroke-width="8" fill="rgb(155,155,155)" fill-opacity="1"></path></g></g><g><g><g><g><g transform="matrix(1,0,0,1,401.28125,219.0015625)"><path transform="matrix(0.0119,0,0,-0.0119,0,0)" d="M418 -3L418 27L366 30C311 33 301 44 301 96L301 700L60 598L67 548L217 614L217 96C217 44 206 33 152 30L96 27L96 -3C250 0 250 0 261 0C292 0 402 -3 418 -3Z" stroke="rgb(155,155,155)" stroke-opacity="1" stroke-width="8" fill="rgb(155,155,155)" fill-opacity="1"></path></g></g></g></g></g></g></g></g></g></g><g><g><g><g><g><g><g transform="matrix(1,0,0,1,268.5,107.5)"><path transform="matrix(0.017,0,0,-0.017,0,0)" d="M567 55C567 39 552 30 524 28L480 25L480 -3C582 0 582 0 602 0C622 0 622 0 724 -3L724 25L698 28C651 35 650 35 642 80L555 705L509 705L136 112C100 56 82 40 48 32L28 27L28 -3C120 0 120 0 140 0C159 0 161 0 247 -3L247 25L195 28C179 29 164 38 164 47C164 55 171 69 190 102L292 277L538 277L563 89L563 86C563 84 567 69 567 55ZM496 601L533 313L317 313Z" stroke="rgb(155,155,155)" stroke-opacity="1" stroke-width="8" fill="rgb(155,155,155)" fill-opacity="1"></path></g></g><g><g><g><g><g transform="matrix(1,0,0,1,281.78125,111.0015625)"><path transform="matrix(0.0119,0,0,-0.0119,0,0)" d="M462 224C462 345 355 366 308 374C388 436 418 482 418 541C418 630 344 689 233 689C165 689 120 670 72 622L43 498L74 498L92 554C103 588 166 622 218 622C283 622 336 569 336 506C336 431 277 368 206 368C198 368 187 369 174 370L159 371L147 318L154 312C192 329 211 334 238 334C321 334 369 281 369 190C369 88 308 21 215 21C169 21 128 36 98 64C74 86 61 109 42 163L15 153C36 92 44 56 50 6C103 -12 147 -20 184 -20C307 -20 462 87 462 224Z" stroke="rgb(155,155,155)" stroke-opacity="1" stroke-width="8" fill="rgb(155,155,155)" fill-opacity="1"></path></g></g></g></g></g></g></g></g></g></g><g><g><g><g><g><g><g transform="matrix(1,0,0,1,379,95.5)"><path transform="matrix(0.017,0,0,-0.017,0,0)" d="M567 55C567 39 552 30 524 28L480 25L480 -3C582 0 582 0 602 0C622 0 622 0 724 -3L724 25L698 28C651 35 650 35 642 80L555 705L509 705L136 112C100 56 82 40 48 32L28 27L28 -3C120 0 120 0 140 0C159 0 161 0 247 -3L247 25L195 28C179 29 164 38 164 47C164 55 171 69 190 102L292 277L538 277L563 89L563 86C563 84 567 69 567 55ZM496 601L533 313L317 313Z" stroke="rgb(155,155,155)" stroke-opacity="1" stroke-width="8" fill="rgb(155,155,155)" fill-opacity="1"></path></g></g><g><g><g><g><g transform="matrix(1,0,0,1,392.28125,99.0015625)"><path transform="matrix(0.0119,0,0,-0.0119,0,0)" d="M280 181L280 106C280 46 269 32 220 30L158 27L158 -3C291 0 291 0 315 0C339 0 339 0 472 -3L472 27L424 30C375 33 364 46 364 106L364 181C423 181 444 180 472 177L472 248L364 245L365 697L285 667L2 204L2 181ZM280 245L65 245L280 597Z" stroke="rgb(155,155,155)" stroke-opacity="1" stroke-width="8" fill="rgb(155,155,155)" fill-opacity="1"></path></g></g></g></g></g></g></g></g></g></g><g><g><g><g><g><g><g transform="matrix(1,0,0,1,243,272)"><path transform="matrix(0.017,0,0,-0.017,0,0)" d="M543 227C543 337 459 353 377 365C434 385 459 397 490 425C536 464 559 511 559 562C559 644 501 692 401 692C399 692 389 692 374 691L311 690C299 689 263 689 251 689C232 689 201 690 152 691L100 692L97 664L150 662C174 661 185 653 185 635C185 621 181 589 176 559L89 55C85 37 73 30 31 23L26 -3L63 -2C90 0 105 0 117 0C128 0 154 -1 180 -2L217 -3L237 -4C256 -5 269 -6 277 -6C392 -6 543 87 543 227ZM166 41L217 340L302 340C405 340 455 298 455 211C455 108 382 34 282 34C228 34 207 38 166 41ZM352 655C433 655 473 619 473 544C473 439 399 376 275 376L223 376L272 650C288 650 329 655 352 655Z" stroke="rgb(155,155,155)" stroke-opacity="1" stroke-width="8" fill="rgb(155,155,155)" fill-opacity="1"></path></g></g><g><g><g><g><g transform="matrix(1,0,0,1,253.8828125,275.5015625)"><path transform="matrix(0.0119,0,0,-0.0119,0,0)" d="M16 23L16 -3C203 -3 203 0 239 0C275 0 275 -3 468 -3L468 82C353 77 307 81 122 77L304 270C401 373 431 428 431 503C431 618 353 689 226 689C154 689 105 669 56 619L39 483L68 483L81 529C97 587 133 612 200 612C286 612 341 558 341 473C341 398 299 324 186 204Z" stroke="rgb(155,155,155)" stroke-opacity="1" stroke-width="8" fill="rgb(155,155,155)" fill-opacity="1"></path></g></g></g></g></g></g></g></g></g></g><g><g><g><g><g><g><g transform="matrix(1,0,0,1,415.5,278.5)"><path transform="matrix(0.017,0,0,-0.017,0,0)" d="M543 227C543 337 459 353 377 365C434 385 459 397 490 425C536 464 559 511 559 562C559 644 501 692 401 692C399 692 389 692 374 691L311 690C299 689 263 689 251 689C232 689 201 690 152 691L100 692L97 664L150 662C174 661 185 653 185 635C185 621 181 589 176 559L89 55C85 37 73 30 31 23L26 -3L63 -2C90 0 105 0 117 0C128 0 154 -1 180 -2L217 -3L237 -4C256 -5 269 -6 277 -6C392 -6 543 87 543 227ZM166 41L217 340L302 340C405 340 455 298 455 211C455 108 382 34 282 34C228 34 207 38 166 41ZM352 655C433 655 473 619 473 544C473 439 399 376 275 376L223 376L272 650C288 650 329 655 352 655Z" stroke="rgb(155,155,155)" stroke-opacity="1" stroke-width="8" fill="rgb(155,155,155)" fill-opacity="1"></path></g></g><g><g><g><g><g transform="matrix(1,0,0,1,426.3828125,282.0015625)"><path transform="matrix(0.0119,0,0,-0.0119,0,0)" d="M418 -3L418 27L366 30C311 33 301 44 301 96L301 700L60 598L67 548L217 614L217 96C217 44 206 33 152 30L96 27L96 -3C250 0 250 0 261 0C292 0 402 -3 418 -3Z" stroke="rgb(155,155,155)" stroke-opacity="1" stroke-width="8" fill="rgb(155,155,155)" fill-opacity="1"></path></g></g></g></g></g></g></g></g></g></g><g><g><g><g><g><g><g transform="matrix(1,0,0,1,440,26.5)"><path transform="matrix(0.017,0,0,-0.017,0,0)" d="M543 227C543 337 459 353 377 365C434 385 459 397 490 425C536 464 559 511 559 562C559 644 501 692 401 692C399 692 389 692 374 691L311 690C299 689 263 689 251 689C232 689 201 690 152 691L100 692L97 664L150 662C174 661 185 653 185 635C185 621 181 589 176 559L89 55C85 37 73 30 31 23L26 -3L63 -2C90 0 105 0 117 0C128 0 154 -1 180 -2L217 -3L237 -4C256 -5 269 -6 277 -6C392 -6 543 87 543 227ZM166 41L217 340L302 340C405 340 455 298 455 211C455 108 382 34 282 34C228 34 207 38 166 41ZM352 655C433 655 473 619 473 544C473 439 399 376 275 376L223 376L272 650C288 650 329 655 352 655Z" stroke="rgb(155,155,155)" stroke-opacity="1" stroke-width="8" fill="rgb(155,155,155)" fill-opacity="1"></path></g></g><g><g><g><g><g transform="matrix(1,0,0,1,450.8828125,30.0015625)"><path transform="matrix(0.0119,0,0,-0.0119,0,0)" d="M280 181L280 106C280 46 269 32 220 30L158 27L158 -3C291 0 291 0 315 0C339 0 339 0 472 -3L472 27L424 30C375 33 364 46 364 106L364 181C423 181 444 180 472 177L472 248L364 245L365 697L285 667L2 204L2 181ZM280 245L65 245L280 597Z" stroke="rgb(155,155,155)" stroke-opacity="1" stroke-width="8" fill="rgb(155,155,155)" fill-opacity="1"></path></g></g></g></g></g></g></g></g></g></g><g><g><g><g><g><g><g transform="matrix(1,0,0,1,275,18.5)"><path transform="matrix(0.017,0,0,-0.017,0,0)" d="M543 227C543 337 459 353 377 365C434 385 459 397 490 425C536 464 559 511 559 562C559 644 501 692 401 692C399 692 389 692 374 691L311 690C299 689 263 689 251 689C232 689 201 690 152 691L100 692L97 664L150 662C174 661 185 653 185 635C185 621 181 589 176 559L89 55C85 37 73 30 31 23L26 -3L63 -2C90 0 105 0 117 0C128 0 154 -1 180 -2L217 -3L237 -4C256 -5 269 -6 277 -6C392 -6 543 87 543 227ZM166 41L217 340L302 340C405 340 455 298 455 211C455 108 382 34 282 34C228 34 207 38 166 41ZM352 655C433 655 473 619 473 544C473 439 399 376 275 376L223 376L272 650C288 650 329 655 352 655Z" stroke="rgb(155,155,155)" stroke-opacity="1" stroke-width="8" fill="rgb(155,155,155)" fill-opacity="1"></path></g></g><g><g><g><g><g transform="matrix(1,0,0,1,285.8828125,22.0015625)"><path transform="matrix(0.0119,0,0,-0.0119,0,0)" d="M462 224C462 345 355 366 308 374C388 436 418 482 418 541C418 630 344 689 233 689C165 689 120 670 72 622L43 498L74 498L92 554C103 588 166 622 218 622C283 622 336 569 336 506C336 431 277 368 206 368C198 368 187 369 174 370L159 371L147 318L154 312C192 329 211 334 238 334C321 334 369 281 369 190C369 88 308 21 215 21C169 21 128 36 98 64C74 86 61 109 42 163L15 153C36 92 44 56 50 6C103 -12 147 -20 184 -20C307 -20 462 87 462 224Z" stroke="rgb(155,155,155)" stroke-opacity="1" stroke-width="8" fill="rgb(155,155,155)" fill-opacity="1"></path></g></g></g></g></g></g></g></g></g></g><g><g><g><g><g><g><g transform="matrix(1,0,0,1,500.5,198)"><path transform="matrix(0.017,0,0,-0.017,0,0)" d="M45 284C45 90 152 -18 343 -18C439 -18 510 5 600 67C600 67 610 103 610 103C610 103 600 110 600 110C506 53 454 35 376 35C219 35 133 131 133 309C133 447 190 653 418 653C489 653 541 639 597 603L597 519L624 519C629 576 637 619 651 665C575 694 518 706 456 706C276 706 45 578 45 284Z" stroke="rgb(155,155,155)" stroke-opacity="1" stroke-width="8" fill="rgb(155,155,155)" fill-opacity="1"></path></g></g><g><g><g><g><g transform="matrix(1,0,0,1,512.6875,201.5015625)"><path transform="matrix(0.0119,0,0,-0.0119,0,0)" d="M418 -3L418 27L366 30C311 33 301 44 301 96L301 700L60 598L67 548L217 614L217 96C217 44 206 33 152 30L96 27L96 -3C250 0 250 0 261 0C292 0 402 -3 418 -3Z" stroke="rgb(155,155,155)" stroke-opacity="1" stroke-width="8" fill="rgb(155,155,155)" fill-opacity="1"></path></g></g></g></g></g></g></g></g></g></g><g><g><g><g><g><g><g transform="matrix(1,0,0,1,466,97.5)"><path transform="matrix(0.017,0,0,-0.017,0,0)" d="M45 284C45 90 152 -18 343 -18C439 -18 510 5 600 67C600 67 610 103 610 103C610 103 600 110 600 110C506 53 454 35 376 35C219 35 133 131 133 309C133 447 190 653 418 653C489 653 541 639 597 603L597 519L624 519C629 576 637 619 651 665C575 694 518 706 456 706C276 706 45 578 45 284Z" stroke="rgb(155,155,155)" stroke-opacity="1" stroke-width="8" fill="rgb(155,155,155)" fill-opacity="1"></path></g></g><g><g><g><g><g transform="matrix(1,0,0,1,478.1875,101.0015625)"><path transform="matrix(0.0119,0,0,-0.0119,0,0)" d="M280 181L280 106C280 46 269 32 220 30L158 27L158 -3C291 0 291 0 315 0C339 0 339 0 472 -3L472 27L424 30C375 33 364 46 364 106L364 181C423 181 444 180 472 177L472 248L364 245L365 697L285 667L2 204L2 181ZM280 245L65 245L280 597Z" stroke="rgb(155,155,155)" stroke-opacity="1" stroke-width="8" fill="rgb(155,155,155)" fill-opacity="1"></path></g></g></g></g></g></g></g></g></g></g><g><g><g><g><g><g><g transform="matrix(1,0,0,1,154,246.5)"><path transform="matrix(0.017,0,0,-0.017,0,0)" d="M45 284C45 90 152 -18 343 -18C439 -18 510 5 600 67C600 67 610 103 610 103C610 103 600 110 600 110C506 53 454 35 376 35C219 35 133 131 133 309C133 447 190 653 418 653C489 653 541 639 597 603L597 519L624 519C629 576 637 619 651 665C575 694 518 706 456 706C276 706 45 578 45 284Z" stroke="rgb(155,155,155)" stroke-opacity="1" stroke-width="8" fill="rgb(155,155,155)" fill-opacity="1"></path></g></g><g><g><g><g><g transform="matrix(1,0,0,1,166.1875,250.0015625)"><path transform="matrix(0.0119,0,0,-0.0119,0,0)" d="M16 23L16 -3C203 -3 203 0 239 0C275 0 275 -3 468 -3L468 82C353 77 307 81 122 77L304 270C401 373 431 428 431 503C431 618 353 689 226 689C154 689 105 669 56 619L39 483L68 483L81 529C97 587 133 612 200 612C286 612 341 558 341 473C341 398 299 324 186 204Z" stroke="rgb(155,155,155)" stroke-opacity="1" stroke-width="8" fill="rgb(155,155,155)" fill-opacity="1"></path></g></g></g></g></g></g></g></g></g></g><g><g><g><g><g><g><g transform="matrix(1,0,0,1,203,55.5)"><path transform="matrix(0.017,0,0,-0.017,0,0)" d="M45 284C45 90 152 -18 343 -18C439 -18 510 5 600 67C600 67 610 103 610 103C610 103 600 110 600 110C506 53 454 35 376 35C219 35 133 131 133 309C133 447 190 653 418 653C489 653 541 639 597 603L597 519L624 519C629 576 637 619 651 665C575 694 518 706 456 706C276 706 45 578 45 284Z" stroke="rgb(155,155,155)" stroke-opacity="1" stroke-width="8" fill="rgb(155,155,155)" fill-opacity="1"></path></g></g><g><g><g><g><g transform="matrix(1,0,0,1,215.1875,59.0015625)"><path transform="matrix(0.0119,0,0,-0.0119,0,0)" d="M462 224C462 345 355 366 308 374C388 436 418 482 418 541C418 630 344 689 233 689C165 689 120 670 72 622L43 498L74 498L92 554C103 588 166 622 218 622C283 622 336 569 336 506C336 431 277 368 206 368C198 368 187 369 174 370L159 371L147 318L154 312C192 329 211 334 238 334C321 334 369 281 369 190C369 88 308 21 215 21C169 21 128 36 98 64C74 86 61 109 42 163L15 153C36 92 44 56 50 6C103 -12 147 -20 184 -20C307 -20 462 87 462 224Z" stroke="rgb(155,155,155)" stroke-opacity="1" stroke-width="8" fill="rgb(155,155,155)" fill-opacity="1"></path></g></g></g></g></g></g></g></g></g></g><g><g><g><g><g><g><g transform="matrix(1,0,0,1,320.7421875,210.2953125)"><path transform="matrix(0.0136,0,0,-0.0136,0,0)" d="M522 473C432 473 333 398 296 322C266 261 244 86 234 17C141 41 110 116 112 206C114 343 192 432 321 468L321 485C172 462 32 363 29 201C27 73 113 11 232 -6C220 -94 199 -190 180 -277C203 -266 235 -258 257 -251L290 -4C476 0 639 142 643 332C645 412 609 473 522 473ZM485 440C555 440 573 375 572 317C569 156 451 32 291 15L322 178C339 267 364 440 485 440Z" stroke="rgb(128,128,128)" stroke-opacity="1" stroke-width="8" fill="rgb(128,128,128)" fill-opacity="1"></path></g></g></g></g></g></g></g><g><g><g><g><g><g><g transform="matrix(1,0,0,1,261.5,157.5921875)"><path transform="matrix(0.0136,0,0,-0.0136,0,0)" d="M209 428C209 445 202 463 182 463C151 463 67 413 39 394L39 378L50 378L50 377C68 387 87 399 107 399C175 399 99 224 95 120C90 -3 185 -21 296 -8C279 -96 266 -186 239 -271L239 -281C259 -274 280 -264 300 -254C306 -171 316 -88 326 -5C482 24 651 212 653 372C653 391 651 458 623 458C608 458 572 442 557 438L557 425C637 247 508 59 334 38C378 251 413 465 463 676L463 682C444 677 427 671 410 662C386 454 344 243 304 36L283 36C79 26 205 310 209 428Z" stroke="rgb(128,128,128)" stroke-opacity="1" stroke-width="8" fill="rgb(128,128,128)" fill-opacity="1"></path></g></g><g><g><g><g><g transform="matrix(1,0,0,1,271.359375,159.98875)"><path transform="matrix(0.009519999999999999,0,0,-0.009519999999999999,0,0)" d="M16 23L16 -3C203 -3 203 0 239 0C275 0 275 -3 468 -3L468 82C353 77 307 81 122 77L304 270C401 373 431 428 431 503C431 618 353 689 226 689C154 689 105 669 56 619L39 483L68 483L81 529C97 587 133 612 200 612C286 612 341 558 341 473C341 398 299 324 186 204Z" stroke="rgb(128,128,128)" stroke-opacity="1" stroke-width="8" fill="rgb(128,128,128)" fill-opacity="1"></path></g></g></g></g></g></g></g></g></g></g><g><g><g><g><g><g><g transform="matrix(1,0,0,1,407.5,155.115625)"><path transform="matrix(0.0136,0,0,-0.0136,0,0)" d="M209 428C209 445 202 463 182 463C151 463 67 413 39 394L39 378L50 378L50 377C68 387 87 399 107 399C175 399 99 224 95 120C90 -3 185 -21 296 -8C279 -96 266 -186 239 -271L239 -281C259 -274 280 -264 300 -254C306 -171 316 -88 326 -5C482 24 651 212 653 372C653 391 651 458 623 458C608 458 572 442 557 438L557 425C637 247 508 59 334 38C378 251 413 465 463 676L463 682C444 677 427 671 410 662C386 454 344 243 304 36L283 36C79 26 205 310 209 428Z" stroke="rgb(128,128,128)" stroke-opacity="1" stroke-width="8" fill="rgb(128,128,128)" fill-opacity="1"></path></g></g><g><g><g><g><g transform="matrix(1,0,0,1,417.359375,157.5121875)"><path transform="matrix(0.009519999999999999,0,0,-0.009519999999999999,0,0)" d="M418 -3L418 27L366 30C311 33 301 44 301 96L301 700L60 598L67 548L217 614L217 96C217 44 206 33 152 30L96 27L96 -3C250 0 250 0 261 0C292 0 402 -3 418 -3Z" stroke="rgb(128,128,128)" stroke-opacity="1" stroke-width="8" fill="rgb(128,128,128)" fill-opacity="1"></path></g></g></g></g></g></g></g></g></g></g><g><g><g><g><g><g><g transform="matrix(1,0,0,1,329.1796875,108.2953125)"><path transform="matrix(0.0136,0,0,-0.0136,0,0)" d="M237 -16C473 -16 572 316 576 504C578 618 546 702 419 702C159 702 72 412 69 199C67 80 101 -16 237 -16ZM401 676C536 676 506 491 485 381L169 381C194 485 272 676 401 676ZM253 13C102 13 147 261 163 349L479 349C454 237 396 13 253 13Z" stroke="rgb(128,128,128)" stroke-opacity="1" stroke-width="8" fill="rgb(128,128,128)" fill-opacity="1"></path></g></g></g></g></g></g></g><g><g><g><g><g><g><g transform="matrix(1,0,0,1,248,204)"><path transform="matrix(0.0085,0,0,-0.0085,0,0)" d="M400 -16C446 -16 513 54 545 84L545 97L532 97C513 79 489 55 462 55C417 55 424 184 424 216C474 278 520 343 558 413C551 428 544 444 536 459L525 459C511 391 456 315 420 257C422 336 445 472 332 473C164 473 27 243 24 93C23 33 43 -16 111 -16C203 -16 297 64 357 131C357 96 348 -15 400 -16ZM284 437C371 437 358 224 357 164C314 113 233 28 162 28C109 28 98 70 99 115C100 202 175 437 284 437Z" stroke="rgb(128,128,128)" stroke-opacity="1" stroke-width="8" fill="rgb(128,128,128)" fill-opacity="1"></path></g></g><g><g><g><g><g transform="matrix(1,0,0,1,253.3046875,205.5046875)"><path transform="matrix(0.00595,0,0,-0.00595,0,0)" d="M16 23L16 -3C203 -3 203 0 239 0C275 0 275 -3 468 -3L468 82C353 77 307 81 122 77L304 270C401 373 431 428 431 503C431 618 353 689 226 689C154 689 105 669 56 619L39 483L68 483L81 529C97 587 133 612 200 612C286 612 341 558 341 473C341 398 299 324 186 204Z" stroke="rgb(128,128,128)" stroke-opacity="1" stroke-width="8" fill="rgb(128,128,128)" fill-opacity="1"></path></g></g></g></g></g></g></g></g></g></g><g><g><g><g><g><g><g transform="matrix(1,0,0,1,249,192.5)"><path transform="matrix(0.0085,0,0,-0.0085,0,0)" d="M183 -16C340 -16 453 139 455 287C458 470 216 507 227 622C234 698 356 689 413 655L423 655C420 667 417 681 411 694C316 715 167 698 156 597C149 540 224 493 266 464L266 458C123 426 31 304 29 160C27 53 70 -16 183 -16ZM209 12C125 12 105 99 106 167C108 295 153 411 287 448C349 399 381 350 380 269C378 174 327 12 209 12Z" stroke="rgb(128,128,128)" stroke-opacity="1" stroke-width="8" fill="rgb(128,128,128)" fill-opacity="1"></path></g></g><g><g><g><g><g transform="matrix(1,0,0,1,253.4765625,194.0046875)"><path transform="matrix(0.00595,0,0,-0.00595,0,0)" d="M16 23L16 -3C203 -3 203 0 239 0C275 0 275 -3 468 -3L468 82C353 77 307 81 122 77L304 270C401 373 431 428 431 503C431 618 353 689 226 689C154 689 105 669 56 619L39 483L68 483L81 529C97 587 133 612 200 612C286 612 341 558 341 473C341 398 299 324 186 204Z" stroke="rgb(128,128,128)" stroke-opacity="1" stroke-width="8" fill="rgb(128,128,128)" fill-opacity="1"></path></g></g></g></g></g></g></g></g></g></g><g><g><g><g><g><g><g transform="matrix(1,0,0,1,237,207.5)"><path transform="matrix(0.0085,0,0,-0.0085,0,0)" d="M459 205C459 301 389 358 298 360L298 369C391 400 475 479 476 581C477 644 445 680 381 680C154 680 114 463 89 289C62 101 36 -87 -8 -273L-8 -283C18 -274 43 -265 70 -259C76 -162 90 -66 104 29C239 -84 459 37 459 205ZM216 12C159 12 123 45 124 103C126 205 190 570 278 629C337 668 411 631 406 558C398 447 310 371 204 371C201 338 204 378 200 329C294 362 383 309 378 208C374 115 322 12 216 12Z" stroke="rgb(128,128,128)" stroke-opacity="1" stroke-width="8" fill="rgb(128,128,128)" fill-opacity="1"></path></g></g><g><g><g><g><g transform="matrix(1,0,0,1,241.609375,209.0046875)"><path transform="matrix(0.00595,0,0,-0.00595,0,0)" d="M16 23L16 -3C203 -3 203 0 239 0C275 0 275 -3 468 -3L468 82C353 77 307 81 122 77L304 270C401 373 431 428 431 503C431 618 353 689 226 689C154 689 105 669 56 619L39 483L68 483L81 529C97 587 133 612 200 612C286 612 341 558 341 473C341 398 299 324 186 204Z" stroke="rgb(128,128,128)" stroke-opacity="1" stroke-width="8" fill="rgb(128,128,128)" fill-opacity="1"></path></g></g></g></g></g></g></g></g></g></g><g><g><g><g><g><g><g transform="matrix(1,0,0,1,235,192.5)"><path transform="matrix(0.0085,0,0,-0.0085,0,0)" d="M154 473C89 473 51 426 18 377C18 371 27 368 30 365L30 366C54 394 74 412 111 412C206 412 215 290 214 220C212 136 203 53 186 -29C140 -86 92 -181 65 -249C69 -257 74 -265 77 -273C98 -268 119 -260 139 -251C165 -183 189 -106 203 -36C387 199 540 317 547 438C550 493 485 453 459 446L459 435C502 284 287 130 220 19L220 23C302 358 258 473 154 473Z" stroke="rgb(128,128,128)" stroke-opacity="1" stroke-width="8" fill="rgb(128,128,128)" fill-opacity="1"></path></g></g><g><g><g><g><g transform="matrix(1,0,0,1,240.1953125,194.0046875)"><path transform="matrix(0.00595,0,0,-0.00595,0,0)" d="M16 23L16 -3C203 -3 203 0 239 0C275 0 275 -3 468 -3L468 82C353 77 307 81 122 77L304 270C401 373 431 428 431 503C431 618 353 689 226 689C154 689 105 669 56 619L39 483L68 483L81 529C97 587 133 612 200 612C286 612 341 558 341 473C341 398 299 324 186 204Z" stroke="rgb(128,128,128)" stroke-opacity="1" stroke-width="8" fill="rgb(128,128,128)" fill-opacity="1"></path></g></g></g></g></g></g></g></g></g></g><g><g><g><g><g><g><g transform="matrix(1,0,0,1,266.5,126.5)"><path transform="matrix(0.0085,0,0,-0.0085,0,0)" d="M183 -16C340 -16 453 139 455 287C458 470 216 507 227 622C234 698 356 689 413 655L423 655C420 667 417 681 411 694C316 715 167 698 156 597C149 540 224 493 266 464L266 458C123 426 31 304 29 160C27 53 70 -16 183 -16ZM209 12C125 12 105 99 106 167C108 295 153 411 287 448C349 399 381 350 380 269C378 174 327 12 209 12Z" stroke="rgb(128,128,128)" stroke-opacity="1" stroke-width="8" fill="rgb(128,128,128)" fill-opacity="1"></path></g></g><g><g><g><g><g transform="matrix(1,0,0,1,270.9765625,128.0046875)"><path transform="matrix(0.00595,0,0,-0.00595,0,0)" d="M462 224C462 345 355 366 308 374C388 436 418 482 418 541C418 630 344 689 233 689C165 689 120 670 72 622L43 498L74 498L92 554C103 588 166 622 218 622C283 622 336 569 336 506C336 431 277 368 206 368C198 368 187 369 174 370L159 371L147 318L154 312C192 329 211 334 238 334C321 334 369 281 369 190C369 88 308 21 215 21C169 21 128 36 98 64C74 86 61 109 42 163L15 153C36 92 44 56 50 6C103 -12 147 -20 184 -20C307 -20 462 87 462 224Z" stroke="rgb(128,128,128)" stroke-opacity="1" stroke-width="8" fill="rgb(128,128,128)" fill-opacity="1"></path></g></g></g></g></g></g></g></g></g></g><g><g><g><g><g><g><g transform="matrix(1,0,0,1,254,120.5)"><path transform="matrix(0.0085,0,0,-0.0085,0,0)" d="M154 473C89 473 51 426 18 377C18 371 27 368 30 365L30 366C54 394 74 412 111 412C206 412 215 290 214 220C212 136 203 53 186 -29C140 -86 92 -181 65 -249C69 -257 74 -265 77 -273C98 -268 119 -260 139 -251C165 -183 189 -106 203 -36C387 199 540 317 547 438C550 493 485 453 459 446L459 435C502 284 287 130 220 19L220 23C302 358 258 473 154 473Z" stroke="rgb(128,128,128)" stroke-opacity="1" stroke-width="8" fill="rgb(128,128,128)" fill-opacity="1"></path></g></g><g><g><g><g><g transform="matrix(1,0,0,1,259.1953125,122.0046875)"><path transform="matrix(0.00595,0,0,-0.00595,0,0)" d="M462 224C462 345 355 366 308 374C388 436 418 482 418 541C418 630 344 689 233 689C165 689 120 670 72 622L43 498L74 498L92 554C103 588 166 622 218 622C283 622 336 569 336 506C336 431 277 368 206 368C198 368 187 369 174 370L159 371L147 318L154 312C192 329 211 334 238 334C321 334 369 281 369 190C369 88 308 21 215 21C169 21 128 36 98 64C74 86 61 109 42 163L15 153C36 92 44 56 50 6C103 -12 147 -20 184 -20C307 -20 462 87 462 224Z" stroke="rgb(128,128,128)" stroke-opacity="1" stroke-width="8" fill="rgb(128,128,128)" fill-opacity="1"></path></g></g></g></g></g></g></g></g></g></g><g><g><g><g><g><g><g transform="matrix(1,0,0,1,258,105.5)"><path transform="matrix(0.0085,0,0,-0.0085,0,0)" d="M459 205C459 301 389 358 298 360L298 369C391 400 475 479 476 581C477 644 445 680 381 680C154 680 114 463 89 289C62 101 36 -87 -8 -273L-8 -283C18 -274 43 -265 70 -259C76 -162 90 -66 104 29C239 -84 459 37 459 205ZM216 12C159 12 123 45 124 103C126 205 190 570 278 629C337 668 411 631 406 558C398 447 310 371 204 371C201 338 204 378 200 329C294 362 383 309 378 208C374 115 322 12 216 12Z" stroke="rgb(128,128,128)" stroke-opacity="1" stroke-width="8" fill="rgb(128,128,128)" fill-opacity="1"></path></g></g><g><g><g><g><g transform="matrix(1,0,0,1,262.609375,107.0046875)"><path transform="matrix(0.00595,0,0,-0.00595,0,0)" d="M462 224C462 345 355 366 308 374C388 436 418 482 418 541C418 630 344 689 233 689C165 689 120 670 72 622L43 498L74 498L92 554C103 588 166 622 218 622C283 622 336 569 336 506C336 431 277 368 206 368C198 368 187 369 174 370L159 371L147 318L154 312C192 329 211 334 238 334C321 334 369 281 369 190C369 88 308 21 215 21C169 21 128 36 98 64C74 86 61 109 42 163L15 153C36 92 44 56 50 6C103 -12 147 -20 184 -20C307 -20 462 87 462 224Z" stroke="rgb(128,128,128)" stroke-opacity="1" stroke-width="8" fill="rgb(128,128,128)" fill-opacity="1"></path></g></g></g></g></g></g></g></g></g></g><g><g><g><g><g><g><g transform="matrix(1,0,0,1,267,114)"><path transform="matrix(0.0085,0,0,-0.0085,0,0)" d="M400 -16C446 -16 513 54 545 84L545 97L532 97C513 79 489 55 462 55C417 55 424 184 424 216C474 278 520 343 558 413C551 428 544 444 536 459L525 459C511 391 456 315 420 257C422 336 445 472 332 473C164 473 27 243 24 93C23 33 43 -16 111 -16C203 -16 297 64 357 131C357 96 348 -15 400 -16ZM284 437C371 437 358 224 357 164C314 113 233 28 162 28C109 28 98 70 99 115C100 202 175 437 284 437Z" stroke="rgb(128,128,128)" stroke-opacity="1" stroke-width="8" fill="rgb(128,128,128)" fill-opacity="1"></path></g></g><g><g><g><g><g transform="matrix(1,0,0,1,272.3046875,115.5046875)"><path transform="matrix(0.00595,0,0,-0.00595,0,0)" d="M462 224C462 345 355 366 308 374C388 436 418 482 418 541C418 630 344 689 233 689C165 689 120 670 72 622L43 498L74 498L92 554C103 588 166 622 218 622C283 622 336 569 336 506C336 431 277 368 206 368C198 368 187 369 174 370L159 371L147 318L154 312C192 329 211 334 238 334C321 334 369 281 369 190C369 88 308 21 215 21C169 21 128 36 98 64C74 86 61 109 42 163L15 153C36 92 44 56 50 6C103 -12 147 -20 184 -20C307 -20 462 87 462 224Z" stroke="rgb(128,128,128)" stroke-opacity="1" stroke-width="8" fill="rgb(128,128,128)" fill-opacity="1"></path></g></g></g></g></g></g></g></g></g></g><g><g><g><g><g><g><g transform="matrix(1,0,0,1,388.5,116.5)"><path transform="matrix(0.0085,0,0,-0.0085,0,0)" d="M183 -16C340 -16 453 139 455 287C458 470 216 507 227 622C234 698 356 689 413 655L423 655C420 667 417 681 411 694C316 715 167 698 156 597C149 540 224 493 266 464L266 458C123 426 31 304 29 160C27 53 70 -16 183 -16ZM209 12C125 12 105 99 106 167C108 295 153 411 287 448C349 399 381 350 380 269C378 174 327 12 209 12Z" stroke="rgb(128,128,128)" stroke-opacity="1" stroke-width="8" fill="rgb(128,128,128)" fill-opacity="1"></path></g></g><g><g><g><g><g transform="matrix(1,0,0,1,392.9765625,118.0046875)"><path transform="matrix(0.00595,0,0,-0.00595,0,0)" d="M280 181L280 106C280 46 269 32 220 30L158 27L158 -3C291 0 291 0 315 0C339 0 339 0 472 -3L472 27L424 30C375 33 364 46 364 106L364 181C423 181 444 180 472 177L472 248L364 245L365 697L285 667L2 204L2 181ZM280 245L65 245L280 597Z" stroke="rgb(128,128,128)" stroke-opacity="1" stroke-width="8" fill="rgb(128,128,128)" fill-opacity="1"></path></g></g></g></g></g></g></g></g></g></g><g><g><g><g><g><g><g transform="matrix(1,0,0,1,386,104)"><path transform="matrix(0.0085,0,0,-0.0085,0,0)" d="M400 -16C446 -16 513 54 545 84L545 97L532 97C513 79 489 55 462 55C417 55 424 184 424 216C474 278 520 343 558 413C551 428 544 444 536 459L525 459C511 391 456 315 420 257C422 336 445 472 332 473C164 473 27 243 24 93C23 33 43 -16 111 -16C203 -16 297 64 357 131C357 96 348 -15 400 -16ZM284 437C371 437 358 224 357 164C314 113 233 28 162 28C109 28 98 70 99 115C100 202 175 437 284 437Z" stroke="rgb(128,128,128)" stroke-opacity="1" stroke-width="8" fill="rgb(128,128,128)" fill-opacity="1"></path></g></g><g><g><g><g><g transform="matrix(1,0,0,1,391.3046875,105.5046875)"><path transform="matrix(0.00595,0,0,-0.00595,0,0)" d="M280 181L280 106C280 46 269 32 220 30L158 27L158 -3C291 0 291 0 315 0C339 0 339 0 472 -3L472 27L424 30C375 33 364 46 364 106L364 181C423 181 444 180 472 177L472 248L364 245L365 697L285 667L2 204L2 181ZM280 245L65 245L280 597Z" stroke="rgb(128,128,128)" stroke-opacity="1" stroke-width="8" fill="rgb(128,128,128)" fill-opacity="1"></path></g></g></g></g></g></g></g></g></g></g><g><g><g><g><g><g><g transform="matrix(1,0,0,1,404,102.5)"><path transform="matrix(0.0085,0,0,-0.0085,0,0)" d="M459 205C459 301 389 358 298 360L298 369C391 400 475 479 476 581C477 644 445 680 381 680C154 680 114 463 89 289C62 101 36 -87 -8 -273L-8 -283C18 -274 43 -265 70 -259C76 -162 90 -66 104 29C239 -84 459 37 459 205ZM216 12C159 12 123 45 124 103C126 205 190 570 278 629C337 668 411 631 406 558C398 447 310 371 204 371C201 338 204 378 200 329C294 362 383 309 378 208C374 115 322 12 216 12Z" stroke="rgb(128,128,128)" stroke-opacity="1" stroke-width="8" fill="rgb(128,128,128)" fill-opacity="1"></path></g></g><g><g><g><g><g transform="matrix(1,0,0,1,408.609375,104.0046875)"><path transform="matrix(0.00595,0,0,-0.00595,0,0)" d="M280 181L280 106C280 46 269 32 220 30L158 27L158 -3C291 0 291 0 315 0C339 0 339 0 472 -3L472 27L424 30C375 33 364 46 364 106L364 181C423 181 444 180 472 177L472 248L364 245L365 697L285 667L2 204L2 181ZM280 245L65 245L280 597Z" stroke="rgb(128,128,128)" stroke-opacity="1" stroke-width="8" fill="rgb(128,128,128)" fill-opacity="1"></path></g></g></g></g></g></g></g></g></g></g><g><g><g><g><g><g><g transform="matrix(1,0,0,1,399,116)"><path transform="matrix(0.0085,0,0,-0.0085,0,0)" d="M154 473C89 473 51 426 18 377C18 371 27 368 30 365L30 366C54 394 74 412 111 412C206 412 215 290 214 220C212 136 203 53 186 -29C140 -86 92 -181 65 -249C69 -257 74 -265 77 -273C98 -268 119 -260 139 -251C165 -183 189 -106 203 -36C387 199 540 317 547 438C550 493 485 453 459 446L459 435C502 284 287 130 220 19L220 23C302 358 258 473 154 473Z" stroke="rgb(128,128,128)" stroke-opacity="1" stroke-width="8" fill="rgb(128,128,128)" fill-opacity="1"></path></g></g><g><g><g><g><g transform="matrix(1,0,0,1,404.1953125,117.5046875)"><path transform="matrix(0.00595,0,0,-0.00595,0,0)" d="M280 181L280 106C280 46 269 32 220 30L158 27L158 -3C291 0 291 0 315 0C339 0 339 0 472 -3L472 27L424 30C375 33 364 46 364 106L364 181C423 181 444 180 472 177L472 248L364 245L365 697L285 667L2 204L2 181ZM280 245L65 245L280 597Z" stroke="rgb(128,128,128)" stroke-opacity="1" stroke-width="8" fill="rgb(128,128,128)" fill-opacity="1"></path></g></g></g></g></g></g></g></g></g></g><g><g><g><g><g><g><g transform="matrix(1,0,0,1,405.5,193.5)"><path transform="matrix(0.0085,0,0,-0.0085,0,0)" d="M183 -16C340 -16 453 139 455 287C458 470 216 507 227 622C234 698 356 689 413 655L423 655C420 667 417 681 411 694C316 715 167 698 156 597C149 540 224 493 266 464L266 458C123 426 31 304 29 160C27 53 70 -16 183 -16ZM209 12C125 12 105 99 106 167C108 295 153 411 287 448C349 399 381 350 380 269C378 174 327 12 209 12Z" stroke="rgb(128,128,128)" stroke-opacity="1" stroke-width="8" fill="rgb(128,128,128)" fill-opacity="1"></path></g></g><g><g><g><g><g transform="matrix(1,0,0,1,409.9765625,195.0046875)"><path transform="matrix(0.00595,0,0,-0.00595,0,0)" d="M418 -3L418 27L366 30C311 33 301 44 301 96L301 700L60 598L67 548L217 614L217 96C217 44 206 33 152 30L96 27L96 -3C250 0 250 0 261 0C292 0 402 -3 418 -3Z" stroke="rgb(128,128,128)" stroke-opacity="1" stroke-width="8" fill="rgb(128,128,128)" fill-opacity="1"></path></g></g></g></g></g></g></g></g></g></g><g><g><g><g><g><g><g transform="matrix(1,0,0,1,403,204)"><path transform="matrix(0.0085,0,0,-0.0085,0,0)" d="M400 -16C446 -16 513 54 545 84L545 97L532 97C513 79 489 55 462 55C417 55 424 184 424 216C474 278 520 343 558 413C551 428 544 444 536 459L525 459C511 391 456 315 420 257C422 336 445 472 332 473C164 473 27 243 24 93C23 33 43 -16 111 -16C203 -16 297 64 357 131C357 96 348 -15 400 -16ZM284 437C371 437 358 224 357 164C314 113 233 28 162 28C109 28 98 70 99 115C100 202 175 437 284 437Z" stroke="rgb(128,128,128)" stroke-opacity="1" stroke-width="8" fill="rgb(128,128,128)" fill-opacity="1"></path></g></g><g><g><g><g><g transform="matrix(1,0,0,1,408.3046875,205.5046875)"><path transform="matrix(0.00595,0,0,-0.00595,0,0)" d="M418 -3L418 27L366 30C311 33 301 44 301 96L301 700L60 598L67 548L217 614L217 96C217 44 206 33 152 30L96 27L96 -3C250 0 250 0 261 0C292 0 402 -3 418 -3Z" stroke="rgb(128,128,128)" stroke-opacity="1" stroke-width="8" fill="rgb(128,128,128)" fill-opacity="1"></path></g></g></g></g></g></g></g></g></g></g><g><g><g><g><g><g><g transform="matrix(1,0,0,1,417,193)"><path transform="matrix(0.0085,0,0,-0.0085,0,0)" d="M154 473C89 473 51 426 18 377C18 371 27 368 30 365L30 366C54 394 74 412 111 412C206 412 215 290 214 220C212 136 203 53 186 -29C140 -86 92 -181 65 -249C69 -257 74 -265 77 -273C98 -268 119 -260 139 -251C165 -183 189 -106 203 -36C387 199 540 317 547 438C550 493 485 453 459 446L459 435C502 284 287 130 220 19L220 23C302 358 258 473 154 473Z" stroke="rgb(128,128,128)" stroke-opacity="1" stroke-width="8" fill="rgb(128,128,128)" fill-opacity="1"></path></g></g><g><g><g><g><g transform="matrix(1,0,0,1,422.1953125,194.5046875)"><path transform="matrix(0.00595,0,0,-0.00595,0,0)" d="M418 -3L418 27L366 30C311 33 301 44 301 96L301 700L60 598L67 548L217 614L217 96C217 44 206 33 152 30L96 27L96 -3C250 0 250 0 261 0C292 0 402 -3 418 -3Z" stroke="rgb(128,128,128)" stroke-opacity="1" stroke-width="8" fill="rgb(128,128,128)" fill-opacity="1"></path></g></g></g></g></g></g></g></g></g></g><g><g><g><g><g><g><g transform="matrix(1,0,0,1,418,205)"><path transform="matrix(0.0085,0,0,-0.0085,0,0)" d="M459 205C459 301 389 358 298 360L298 369C391 400 475 479 476 581C477 644 445 680 381 680C154 680 114 463 89 289C62 101 36 -87 -8 -273L-8 -283C18 -274 43 -265 70 -259C76 -162 90 -66 104 29C239 -84 459 37 459 205ZM216 12C159 12 123 45 124 103C126 205 190 570 278 629C337 668 411 631 406 558C398 447 310 371 204 371C201 338 204 378 200 329C294 362 383 309 378 208C374 115 322 12 216 12Z" stroke="rgb(128,128,128)" stroke-opacity="1" stroke-width="8" fill="rgb(128,128,128)" fill-opacity="1"></path></g></g><g><g><g><g><g transform="matrix(1,0,0,1,422.609375,206.5046875)"><path transform="matrix(0.00595,0,0,-0.00595,0,0)" d="M418 -3L418 27L366 30C311 33 301 44 301 96L301 700L60 598L67 548L217 614L217 96C217 44 206 33 152 30L96 27L96 -3C250 0 250 0 261 0C292 0 402 -3 418 -3Z" stroke="rgb(128,128,128)" stroke-opacity="1" stroke-width="8" fill="rgb(128,128,128)" fill-opacity="1"></path></g></g></g></g></g></g></g></g></g></g></svg>
</svg>
